<?xml version="1.0" encoding="UTF-8"?>
<svg version="1.1" xmlns="http://www.w3.org/2000/svg" width="192" height="192">
<path d="M0 0 C63.36 0 126.72 0 192 0 C192 63.36 192 126.72 192 192 C128.64 192 65.28 192 0 192 C0 128.64 0 65.28 0 0 Z " fill="#D3CACA" transform="translate(0,0)"/>
<path d="M0 0 C0.33 0 0.66 0 1 0 C1 34.65 1 69.3 1 105 C-30.35 105 -61.7 105 -94 105 C-87.97897898 97.77477477 -87.97897898 97.77477477 -85 97 C-83 97.71484375 -83 97.71484375 -81 98.9375 C-78.16092092 100.67619181 -78.16092092 100.67619181 -74.921875 100.8515625 C-72.51651726 99.78577391 -71.68147541 98.62447633 -70.25 96.4375 C-69.5075 95.303125 -68.765 94.16875 -68 93 C-63.71 93.99 -59.42 94.98 -55 96 C-54.34 94.02 -53.68 92.04 -53 90 C-52.34 88.68 -51.68 87.36 -51 86 C-46.71 86 -42.42 86 -38 86 C-37.34 82.37 -36.68 78.74 -36 75 C-29.565 74.01 -29.565 74.01 -23 73 C-23 69.04 -23 65.08 -23 61 C-19.7 59.68 -16.4 58.36 -13 57 C-13.0928125 56.11957031 -13.185625 55.23914063 -13.28125 54.33203125 C-13.50450047 50.74009073 -13.58543857 47.55567839 -13 44 C-10.68314698 41.42910608 -8.22894685 40.17481772 -5 39 C-5.59924224 34.80530429 -6.57499941 30.99000166 -8 27 C-7.48308594 26.55269531 -6.96617187 26.10539062 -6.43359375 25.64453125 C-2.34047259 22.19338506 -2.34047259 22.19338506 -0.8125 17.375 C-2.21572515 14.5685497 -3.92309513 12.34489259 -6 10 C-4.34784004 6.42032008 -2.26875648 3.22017048 0 0 Z " fill="#FEFEFE" transform="translate(191,87)"/>
<path d="M0 0 C31.35 0 62.7 0 95 0 C95 28.05 95 56.1 95 85 C91.09567131 83.04783565 88.96160056 81.12613393 86 78 C86.309375 77.13375 86.61875 76.2675 86.9375 75.375 C87.92491899 72.23849262 88.53581059 69.24932587 89 66 C88.13375 65.68482422 88.13375 65.68482422 87.25 65.36328125 C84.63143639 64.14037567 82.94612437 63.1595152 81 61 C80.27504061 56.5969378 80.53363482 52.42399193 81 48 C76.05 46.02 76.05 46.02 71 44 C71 40.04 71 36.08 71 32 C66.71 31.34 62.42 30.68 58 30 C57.34 26.37 56.68 22.74 56 19 C51.71 19 47.42 19 43 19 C39 11.25 39 11.25 39 9 C34.71 9.99 30.42 10.98 26 12 C24.02 9.36 22.04 6.72 20 4 C15.61110675 4.66498383 12.0188515 6.18757677 8 8 C6.66372225 6.85760183 5.33104612 5.71098945 4 4.5625 C3.2575 3.92441406 2.515 3.28632812 1.75 2.62890625 C1.1725 2.09136719 0.595 1.55382812 0 1 C0 0.67 0 0.34 0 0 Z " fill="#FEFEFE" transform="translate(97,0)"/>
<path d="M0 0 C4.53786224 2.26893112 5.94678157 4.09866534 9 8 C8.484375 9.051875 7.96875 10.10375 7.4375 11.1875 C6.4443061 13.56732692 5.99657716 15.07359108 5.875 17.6875 C7.64287272 21.32146059 10.42077721 22.24292699 14 24 C13.67 28.62 13.34 33.24 13 38 C14.44375 38.309375 15.8875 38.61875 17.375 38.9375 C19.78923686 39.45483647 21.78970467 39.89485234 24 41 C24 44.96 24 48.92 24 53 C28.29 53.66 32.58 54.32 37 55 C37.66 58.63 38.32 62.26 39 66 C43.29 66 47.58 66 52 66 C56 73.75 56 73.75 56 76 C60.29 75.01 64.58 74.02 69 73 C70.98 75.64 72.96 78.28 75 81 C79.38889325 80.33501617 82.9811485 78.81242323 87 77 C88.33627775 78.14239817 89.66895388 79.28901055 91 80.4375 C91.7425 81.07558594 92.485 81.71367187 93.25 82.37109375 C94.11625 83.17740234 94.11625 83.17740234 95 84 C95 84.33 95 84.66 95 85 C63.65 85 32.3 85 0 85 C0 56.95 0 28.9 0 0 Z " fill="#FEFEFE" transform="translate(0,107)"/>
<path d="M0 0 C31.35 0 62.7 0 95 0 C89.575 6.78125 89.575 6.78125 86 8 C83.81365782 7.16648432 81.94394604 6.12905909 79.96484375 4.8828125 C78.03608028 3.82628322 78.03608028 3.82628322 75.890625 4.171875 C73.61493076 4.97325527 73.61493076 4.97325527 71.8125 8.125 C70.5546875 9.76171875 70.5546875 9.76171875 69 11 C64.54014634 11.42360617 60.29026859 10.09932052 56 9 C55.71125 9.9075 55.4225 10.815 55.125 11.75 C54 15 54 15 52 19 C47.71 19 43.42 19 39 19 C38.34 22.63 37.68 26.26 37 30 C32.71 30.66 28.42 31.32 24 32 C24 35.96 24 39.92 24 44 C16.375 47 16.375 47 13 47 C13.33 51.62 13.66 56.24 14 61 C10.04 63.475 10.04 63.475 6 66 C6.59924224 70.19469571 7.57499941 74.00999834 9 78 C7.88121617 79.17262904 6.75476949 80.33795138 5.625 81.5 C4.68527344 82.47453125 4.68527344 82.47453125 3.7265625 83.46875 C2 85 2 85 0 85 C0 56.95 0 28.9 0 0 Z " fill="#FEFEFE" transform="translate(0,0)"/>
<path d="M0 0 C1.65977153 1.16382386 3.2563568 2.4169677 4.8359375 3.6875 C3.4662211 7.68250618 1.57871328 10.48759492 -1.1640625 13.6875 C-4.15857948 13.04965446 -6.57433035 12.02243592 -9.2890625 10.625 C-14.27367254 8.37123243 -18.75538761 7.87572681 -24.1640625 8.6875 C-26.64457179 9.85182069 -28.25832202 10.78175952 -30.1640625 12.6875 C-30.63095198 16.76530113 -30.63095198 16.76530113 -28.90625 20.28515625 C-24.70265236 23.66876959 -18.78626458 24.60024012 -13.6015625 25.6875 C-5.89318381 27.32872548 0.87324526 29.45508252 5.5859375 36.1875 C8.53998688 42.09559876 8.82466751 48.75147287 7.22265625 55.12890625 C4.92748534 61.10443933 1.48334988 64.70720187 -4.1640625 67.6875 C-13.20166675 71.2920936 -24.57229839 71.07113943 -33.5390625 67.625 C-38.87234781 65.13708675 -43.05971184 61.87635199 -47.1640625 57.6875 C-45.80035951 54.69529732 -44.21498167 52.39723471 -42.0390625 49.9375 C-41.50023438 49.32390625 -40.96140625 48.7103125 -40.40625 48.078125 C-39.79136719 47.38976562 -39.79136719 47.38976562 -39.1640625 46.6875 C-38.76316406 47.07421875 -38.36226562 47.4609375 -37.94921875 47.859375 C-32.01522608 53.29550434 -26.10177693 56.82252016 -17.9140625 57.1875 C-14.70454577 57.02252484 -13.01994626 56.62120653 -10.0390625 55.25 C-7.65447798 51.99106783 -7.56665943 49.76149778 -7.5 45.80859375 C-8.00714035 43.50096847 -8.00714035 43.50096847 -10.21484375 42.03125 C-13.71856089 40.43485437 -17.23561905 39.56611842 -20.9765625 38.75 C-30.55291497 36.47770022 -37.36951464 34.07434558 -43.1640625 25.6875 C-45.85664894 20.91427858 -45.81948629 15.8633262 -44.734375 10.60546875 C-42.55332349 3.56417282 -37.98132677 0.19674872 -31.6640625 -3.1875 C-21.76045412 -6.42447706 -8.95426992 -5.43074855 0 0 Z " fill="#FD0303" transform="translate(115.1640625,48.3125)"/>
<path d="M0 0 C4.22141034 1.50764655 5.80349864 4.21292869 8 8 C10.20688462 15.07074216 9.71610163 22.35667571 6.38671875 28.95703125 C3.08187424 33.82585852 -1.46814734 36.84754444 -7.125 38.375 C-17.35106915 40.06759076 -27.76363977 40.14072649 -37 35 C-40.2247854 32.53675285 -43.15667638 29.89246748 -46 27 C-44.63629701 24.00779732 -43.05091917 21.70973471 -40.875 19.25 C-40.33617188 18.63640625 -39.79734375 18.0228125 -39.2421875 17.390625 C-38.83226563 16.93171875 -38.42234375 16.4728125 -38 16 C-37.59910156 16.38671875 -37.19820312 16.7734375 -36.78515625 17.171875 C-30.85116358 22.60800434 -24.93771443 26.13502016 -16.75 26.5 C-13.54048327 26.33502484 -11.85588376 25.93370653 -8.875 24.5625 C-6.49041548 21.30356783 -6.40259693 19.07399778 -6.3359375 15.12109375 C-6.84307785 12.81346847 -6.84307785 12.81346847 -9.05078125 11.34375 C-12.55403395 9.74756599 -16.07124234 8.87619729 -19.8125 8.0625 C-25.70082331 6.69891649 -30.73894987 5.06894591 -36 2 C-35.34 1.67 -34.68 1.34 -34 1 C-32.9275 1.474375 -31.855 1.94875 -30.75 2.4375 C-22.08464511 5.87838773 -11.75090861 4.58223533 -3 2 C-2.01 1.34 -1.02 0.68 0 0 Z " fill="#064CAC" transform="translate(114,113)"/>
<path d="M0 0 C0.96808594 0.28617187 1.93617187 0.57234375 2.93359375 0.8671875 C3.98804687 1.16882813 5.0425 1.47046875 6.12890625 1.78125 C7.19882813 2.09835938 8.26875 2.41546875 9.37109375 2.7421875 C11.34999446 3.24323909 13.3291458 3.74330224 15.30859375 4.2421875 C19.46133543 5.38074582 23.25211656 6.62321031 26.37109375 9.7421875 C26.87329441 12.81896118 26.89817733 15.66840305 26.37109375 18.7421875 C23.72353702 22.15614224 22.25825577 23.38455274 18.0625 24.1796875 C9.84772658 24.58978539 3.49528104 21.73472171 -2.69140625 16.4921875 C-3.68041918 15.58615298 -4.66355617 14.67339336 -5.62890625 13.7421875 C-6.43328125 14.7321875 -7.23765625 15.7221875 -8.06640625 16.7421875 C-8.91203125 17.7321875 -9.75765625 18.7221875 -10.62890625 19.7421875 C-10.95890625 19.7421875 -11.28890625 19.7421875 -11.62890625 19.7421875 C-12.27218484 13.56671307 -11.56988705 9.6536587 -8.11328125 4.46875 C-3.93924338 -0.3863151 -3.93924338 -0.3863151 0 0 Z " fill="#CFC4C6" transform="translate(81.62890625,82.2578125)"/>
<path d="M0 0 C0.96808594 0.28617187 1.93617187 0.57234375 2.93359375 0.8671875 C3.98804687 1.16882813 5.0425 1.47046875 6.12890625 1.78125 C7.19882813 2.09835938 8.26875 2.41546875 9.37109375 2.7421875 C11.34999446 3.24323909 13.3291458 3.74330224 15.30859375 4.2421875 C19.0545261 5.27461619 22.24452124 6.34514858 25.37109375 8.7421875 C25.86609375 9.7321875 25.86609375 9.7321875 26.37109375 10.7421875 C25.42234375 10.4121875 24.47359375 10.0821875 23.49609375 9.7421875 C17.74721613 8.11801272 11.78351297 7.60982746 6.30859375 10.1796875 C4.48095603 11.59681418 4.48095603 11.59681418 3.37109375 12.7421875 C3.33016438 15.07516183 3.32867652 17.40923975 3.37109375 19.7421875 C-0.06485791 18.21509787 -2.74803079 16.14291705 -5.62890625 13.7421875 C-6.43328125 14.7321875 -7.23765625 15.7221875 -8.06640625 16.7421875 C-8.91203125 17.7321875 -9.75765625 18.7221875 -10.62890625 19.7421875 C-10.95890625 19.7421875 -11.28890625 19.7421875 -11.62890625 19.7421875 C-12.27218484 13.56671307 -11.56988705 9.6536587 -8.11328125 4.46875 C-3.93924338 -0.3863151 -3.93924338 -0.3863151 0 0 Z " fill="#0A4BAA" transform="translate(81.62890625,82.2578125)"/>
<path d="M0 0 C2.68617416 2.68617416 4.83833937 4.97367511 7 8 C5.34784004 11.57967992 3.26875648 14.77982952 1 18 C0.67 18 0.34 18 0 18 C0 12.06 0 6.12 0 0 Z " fill="#FDFDFD" transform="translate(0,87)"/>
</svg>
